# xmcd CD database file
#
# Track frame offsets:
#	150
#	23820
#	70589
#	101699
#	124227
#	147043
#	183622
#	191800
#
# Disc length: 3004 seconds
#
# Revision: 0
# Processed by: cddbd v1.5.2PL0 Copyright (c) Steve Scherf et al.
# Submitted via: CDex 2.16
#
DISCID=700bba08
DTITLE=Clark Terry - Carnegie blues the music of Duke Ellington Disc 2
DYEAR=2015
DGENRE=Blues
TTITLE0=Sophiscated lady
TTITLE1=Perdido
TTITLE2=Jeep's blues
TTITLE3=Come Sunday
TTITLE4=Carnegie blues
TTITLE5=Cottontail
TTITLE6=Jones
TTITLE7=Things ain't what they used to be
EXTD=YEAR: 2015
EXTT0=
EXTT1=
EXTT2=
EXTT3=
EXTT4=
EXTT5=
EXTT6=
EXTT7=
PLAYORDER=
